PathFileType	4	(X/Y/Z)	C:/Users/opensim2020/Desktop/walking_exp_matlab/subject02_walking07_straight_03.trc																																																																																																																																																				
DataRate	CameraRate	NumFrames	NumMarkers	Units	OrigDataRate	OrigDataStartFrame	OrigNumFrames																																																																																																																																																
100	100	7	50	mm	100	2043	203																																																																																																																																																
Frame#	Time	LFHD			RFHD			LBHD			RBHD			C7			T10			CLAV			STRN			RBAK			LSHO			LUPA			LELB			LFRM			LWRA			LWRB			LFIN			RSHO			RUPA			RELB			RFRM			RWRA			RWRB			RFIN			LASI			RASI			LPSI			RPSI			LTHI			LKNE			LTIB			LANK			LHEE			LTOE			RTHI			RKNE			RTIB			RANK			RHEE			RTOE			*39			*40			*41			*42			*43			*44			*45			*46			*47			*48			*49		
		X1	Y1	Z1	X2	Y2	Z2	X3	Y3	Z3	X4	Y4	Z4	X5	Y5	Z5	X6	Y6	Z6	X7	Y7	Z7	X8	Y8	Z8	X9	Y9	Z9	X10	Y10	Z10	X11	Y11	Z11	X12	Y12	Z12	X13	Y13	Z13	X14	Y14	Z14	X15	Y15	Z15	X16	Y16	Z16	X17	Y17	Z17	X18	Y18	Z18	X19	Y19	Z19	X20	Y20	Z20	X21	Y21	Z21	X22	Y22	Z22	X23	Y23	Z23	X24	Y24	Z24	X25	Y25	Z25	X26	Y26	Z26	X27	Y27	Z27	X28	Y28	Z28	X29	Y29	Z29	X30	Y30	Z30	X31	Y31	Z31	X32	Y32	Z32	X33	Y33	Z33	X34	Y34	Z34	X35	Y35	Z35	X36	Y36	Z36	X37	Y37	Z37	X38	Y38	Z38	X39	Y39	Z39	X40	Y40	Z40	X41	Y41	Z41	X42	Y42	Z42	X43	Y43	Z43	X44	Y44	Z44	X45	Y45	Z45	X46	Y46	Z46	X47	Y47	Z47	X48	Y48	Z48	X49	Y49	Z49	X50	Y50	Z50
																																																																																																																																																							
51	0.5	-392.17053	1764.63086	1307.25732	-384.37051	1746.1709	1450.32178	-491.7746	1651.99426	1299.98718	-495.91995	1628.54163	1441.427	-517.33228	1522.85547	1364.48853	-563.4306	1250.93506	1372.33423	-374.7619	1464.14856	1361.66443	-318.35422	1292.57239	1382.29553	-573.48517	1353.95496	1432.05298	-433.85916	1495.43713	1187.56067	-424.46216	1292.61548	1105.14893	-408.82367	1152.31079	1092.78442	-374.33005	1024.30688	1083.28809	-299.12991	913.44281	1121.90552	-340.97607	906.33783	1085.26233	-308.06149	849.80811	1081.60657	-443.79346	1502.70166	1554.62659	-464.35257	1315.05872	1646.73181	-437.32379	1173.72351	1678.50854	-396.86096	1063.17859	1709.61853	-336.16876	939.66296	1699.96484	-381.03488	936.08881	1735.26025	-340.15408	874.69409	1739.69128	-320.55884	995.30792	1262.677	-348.46765	978.70953	1515.88354	-537.74994	1036.42603	1316.44971	-554.32446	1029.92773	1429.01611	-370.28882	683.4801	1200.23657	-395.19205	479.94077	1232.90759	-443.35211	289.63232	1237.60803	-427.40656	67.62614	1278.41321	-461.71216	39.75343	1329.69055	-269.92871	32.62596	1267.14978	-404.58521	675.98297	1599.00183	-382.12802	478.84625	1597.83862	-517.64386	355.78513	1587.91821	-636.26642	205.93906	1547.87793	-677.10114	170.25388	1481.40234	-564.8587	74.79529	1606.89636	-507.9812	1793.19531	1398.86438	2845.15015	1033.96301	-3360.37109	NaN	NaN	NaN	NaN	NaN	NaN	NaN	NaN	NaN	NaN	NaN	NaN	NaN	NaN	NaN	NaN	NaN	NaN	NaN	NaN	NaN	NaN	NaN	NaN	NaN	NaN	NaN
52	0.51	-384.09293	1765.26453	1306.16943	-376.14136	1746.76514	1449.29419	-483.36639	1652.47473	1298.97961	-487.52502	1628.97595	1440.44373	-508.94806	1523.62842	1363.02417	-555.43457	1251.75208	1370.49646	-366.47003	1464.6687	1360.71582	-310.37476	1292.93335	1381.20007	-565.55481	1354.69629	1429.98169	-424.52084	1496.64954	1186.55396	-412.05255	1294.43799	1102.9397	-393.23807	1154.50305	1089.74231	-355.16956	1027.76758	1080.56653	-276.67767	919.41156	1120.17139	-318.24979	910.66089	1083.30945	-282.99179	855.41302	1080.02148	-436.08167	1503.04517	1553.57922	-458.47485	1315.5929	1645.10352	-433.46899	1174.06946	1677.25317	-394.57541	1063.00342	1708.64099	-335.08057	938.72223	1699.96851	-380.24078	935.91229	1734.87866	-340.09036	874.05249	1739.68799	-313.93811	995.66705	1260.92993	-340.33304	979.93958	1513.99023	-530.75439	1036.73828	1316.13306	-546.45563	1030.79333	1429.07874	-366.83157	683.10376	1200.12866	-393.0553	479.92645	1232.64465	-442.2934	289.93347	1237.30969	-427.45483	67.7049	1278.49158	-461.76855	39.83901	1329.74194	-269.93207	32.56459	1267.10925	-392.46103	677.586	1598.71228	-366.87234	480.51193	1596.62305	-499.3949	354.03818	1585.88538	-613.56458	200.87077	1545.62488	-652.69458	162.98022	1479.13879	-538.49176	72.97174	1606.40649	-499.78619	1793.77148	1398.11255	2845.78638	1034.04712	-3357.29175	NaN	NaN	NaN	NaN	NaN	NaN	NaN	NaN	NaN	NaN	NaN	NaN	NaN	NaN	NaN	NaN	NaN	NaN	NaN	NaN	NaN	NaN	NaN	NaN	NaN	NaN	NaN
53	0.52	-375.84949	1765.8269	1305.39026	-367.89651	1747.24158	1448.45264	-475.05368	1652.89807	1298.11328	-479.12192	1629.31079	1439.51013	-500.52454	1524.35107	1361.69409	-547.5108	1252.48523	1368.87146	-358.21518	1465.12109	1359.82959	-302.42197	1293.20007	1380.09558	-557.79456	1355.47888	1428.0603	-415.26169	1497.80994	1185.64026	-399.94867	1296.46863	1100.81873	-378.2178	1156.88855	1086.69641	-335.63217	1031.09949	1078.24316	-254.3535	925.85382	1118.63086	-295.61298	915.33655	1081.43774	-258.62683	861.0376	1078.64941	-428.46002	1503.13062	1552.43262	-452.90845	1316.17334	1644.38281	-429.67365	1174.28174	1676.0155	-392.15448	1062.828	1707.96667	-333.78	938.24695	1700.00879	-379.30539	935.6886	1734.37463	-339.80716	873.58466	1739.71948	-307.50989	996.01154	1259.08435	-332.03046	980.96796	1511.8877	-523.7821	1036.86011	1316.11499	-538.57684	1031.65369	1429.46802	-363.81232	682.91498	1200.17468	-390.73965	479.8255	1232.35718	-440.74612	290.1145	1236.96008	-427.37708	67.70838	1278.52344	-461.28	39.27974	1329.9635	-269.94736	32.47706	1267.04187	-380.1925	679.08112	1598.01636	-351.80536	482.06949	1595.3418	-480.83371	351.79022	1583.99597	-590.23138	195.25339	1543.51978	-627.92987	155.63214	1477.01904	-511.39163	70.61811	1605.56812	-491.61179	1794.1001	1397.28784	2845.10718	1033.89185	-3360.31958	NaN	NaN	NaN	NaN	NaN	NaN	NaN	NaN	NaN	NaN	NaN	NaN	NaN	NaN	NaN	NaN	NaN	NaN	NaN	NaN	NaN	NaN	NaN	NaN	NaN	NaN	NaN
54	0.53	-367.6702	1766.24731	1304.49561	-359.60583	1747.63293	1447.65686	-466.66101	1653.26538	1297.28003	-470.74219	1629.56909	1438.70544	-492.15295	1524.91418	1360.42188	-539.66803	1253.10596	1367.49939	-350.00372	1465.44836	1359.02026	-294.50424	1293.38025	1378.95105	-550.03467	1355.83215	1425.95972	-406.13733	1498.85876	1184.79346	-387.79816	1298.41956	1098.97864	-363.21317	1159.29102	1083.84607	-317.04144	1034.62	1075.83679	-232.7216	931.83698	1117.11523	-273.04459	919.98053	1079.89246	-234.58807	866.76886	1077.64587	-420.99927	1503.10486	1551.26538	-447.64932	1316.31519	1642.86328	-425.94321	1174.43188	1674.86035	-389.72379	1062.65247	1707.26025	-332.61234	937.43457	1699.74255	-378.30811	935.36664	1733.88586	-339.28806	872.94012	1739.75171	-301.39069	996.17682	1257.07947	-323.83127	981.72754	1509.62756	-516.90607	1036.91443	1316.37585	-530.74579	1032.48999	1430.13806	-360.22446	682.66949	1200.00366	-388.34769	479.72632	1232.2229	-438.86798	290.28101	1236.84998	-427.32211	67.7729	1278.61853	-461.35703	39.28896	1329.93079	-269.93362	32.38288	1266.94287	-368.64307	680.52722	1597.6875	-336.884	483.48672	1593.97168	-462.02869	349.10684	1582.27734	-566.27728	189.13017	1541.60144	-602.9696	148.44319	1475.03711	-483.1539	67.95876	1604.39746	-483.3765	1794.33606	1396.52405	2845.19092	1034.07361	-3360.42603	NaN	NaN	NaN	NaN	NaN	NaN	NaN	NaN	NaN	NaN	NaN	NaN	NaN	NaN	NaN	NaN	NaN	NaN	NaN	NaN	NaN	NaN	NaN	NaN	NaN	NaN	NaN
55	0.54	-359.33798	1766.60339	1303.9552	-351.32065	1747.87683	1446.9751	-459.00195	1653.70789	1296.25916	-462.53217	1629.677	1437.68286	-483.72263	1525.42419	1359.28394	-531.75195	1253.56018	1366.33728	-341.72354	1465.75647	1358.43054	-286.59479	1293.50989	1377.94019	-542.19861	1356.55054	1424.51196	-397.082	1499.76392	1184.05811	-375.92056	1300.3739	1097.07251	-348.05515	1161.69897	1081.23523	-298.00073	1038.4071	1073.62598	-211.21153	938.19067	1115.50635	-251.47177	924.89478	1078.1189	-211.11691	872.76337	1076.47571	-413.28934	1503.02551	1550.41101	-442.30469	1316.49951	1641.5072	-422.27008	1174.50867	1673.78711	-387.30032	1062.36255	1706.5896	-331.11697	936.73785	1699.74597	-377.19827	935.04932	1733.36194	-338.63205	872.49408	1739.8175	-295.30569	996.21686	1254.99341	-315.99527	982.05139	1507.15308	-510.09879	1036.96045	1316.80603	-523.02209	1033.39575	1430.9917	-356.28098	682.297	1199.78503	-385.90686	479.70938	1232.10693	-437.50555	290.51825	1236.84998	-427.19226	67.86375	1278.81311	-461.26367	39.30276	1330.08582	-269.9447	32.34529	1266.79712	-357.27747	681.8028	1597.20374	-322.57938	484.5394	1592.36902	-442.97644	346.12982	1580.93286	-541.72107	182.66112	1539.95813	-576.64636	140.03702	1473.55115	-454.10883	65.09103	1602.86157	-475.18481	1794.56738	1395.9248	2845.02856	1034.17749	-3360.2793	NaN	NaN	NaN	NaN	NaN	NaN	NaN	NaN	NaN	NaN	NaN	NaN	NaN	NaN	NaN	NaN	NaN	NaN	NaN	NaN	NaN	NaN	NaN	NaN	NaN	NaN	NaN
56	0.55	-351.10938	1766.82275	1303.30591	-342.98563	1748.02893	1446.32788	-450.41861	1653.6499	1295.68652	-453.97357	1629.81726	1437.3197	-475.3638	1525.76074	1358.25806	-523.88898	1253.94678	1365.35376	-333.54944	1465.92676	1357.76343	-278.54883	1293.54749	1376.90417	-534.41833	1356.96741	1422.94739	-388.11514	1500.54919	1183.39624	-363.98926	1302.24451	1095.34851	-333.10477	1164.13708	1078.75305	-279.64694	1042.29199	1071.51172	-190.0748	944.63654	1114.28162	-229.42769	930.07599	1076.89087	-187.70743	879.18988	1075.44556	-405.94955	1502.63721	1549.33252	-436.90585	1316.72278	1640.50928	-418.55075	1174.48267	1672.81104	-384.80588	1062.05322	1706.00415	-329.47125	935.95319	1699.75098	-375.97525	934.61768	1732.78564	-337.86591	872.04205	1739.88306	-289.01001	996.10431	1253.02307	-308.33926	982.04321	1504.61658	-503.33475	1037.04944	1317.31641	-515.22034	1034.32458	1431.79895	-352.18112	681.86859	1199.65515	-383.41064	479.59872	1232.14294	-436.36328	290.81183	1237.04419	-427.10101	67.98169	1278.99915	-461.23715	39.41655	1330.26648	-269.93039	32.26123	1266.67175	-346.17957	682.94684	1596.75146	-307.96524	485.81171	1591.22803	-423.81271	342.82574	1579.70264	-516.69556	175.95012	1538.50256	-550.23157	131.91078	1472.27014	-424.1936	62.23739	1601.07751	-466.8587	1794.65503	1395.37805	2845.11011	1034.04272	-3360.40771	NaN	NaN	NaN	NaN	NaN	NaN	NaN	NaN	NaN	NaN	NaN	NaN	NaN	NaN	NaN	NaN	NaN	NaN	NaN	NaN	NaN	NaN	NaN	NaN	NaN	NaN	NaN
57	0.56	-342.87997	1766.953	1302.71631	-334.65701	1748.05078	1445.89917	-441.68771	1653.80322	1295.47351	-445.81622	1629.75806	1436.44788	-467.05093	1526.03101	1357.35779	-516.08533	1254.23083	1364.59412	-325.371	1465.995	1357.1543	-270.68893	1293.42761	1375.90161	-526.59894	1356.98059	1421.34546	-379.21585	1501.23132	1182.83093	-352.43784	1304.26892	1093.88831	-318.32629	1166.55103	1076.44019	-261.4819	1046.09119	1069.78516	-169.44441	951.20026	1113.0802	-208.33405	935.52435	1075.30286	-165.02544	885.46735	1074.58472	-398.14337	1502.42456	1548.85925	-432.05521	1316.54822	1639.01233	-414.88419	1174.39966	1671.88818	-382.25223	1061.67688	1705.29773	-327.66718	935.28241	1699.95422	-374.62549	934.17584	1732.18494	-336.88129	871.58655	1739.86633	-282.75815	995.78046	1251.14392	-298.43698	983.09076	1503.71545	-496.526	1037.12854	1317.86145	-507.37195	1035.17053	1432.54675	-347.79929	681.36115	1199.59875	-380.75708	479.45776	1232.22681	-435.67419	291.25085	1237.32324	-427.04218	68.12912	1279.19604	-461.64594	39.9968	1330.255	-269.95078	32.25562	1266.55493	-335.3027	683.94556	1596.3374	-293.87747	486.84039	1589.80652	-404.54004	339.35358	1578.50403	-491.13733	169.04984	1537.18542	-523.61768	123.82571	1471.14343	-393.63898	59.55077	1599.19495	-458.55957	1794.69104	1394.97534	2845.80249	1034.08777	-3357.44971	NaN	NaN	NaN	NaN	NaN	NaN	NaN	NaN	NaN	NaN	NaN	NaN	NaN	NaN	NaN	NaN	NaN	NaN	NaN	NaN	NaN	NaN	NaN	NaN	NaN	NaN	NaN
